<svg width="300" height="48" viewBox="0 0 300 48" fill="none" xmlns="http://www.w3.org/2000/svg">
<path d="M51.8594 38.6087V9.3911H63.2693C64.7061 9.3911 65.988 9.61435 67.1149 10.0608C68.2418 10.4794 69.1856 11.0934 69.9463 11.9026C70.7351 12.7119 71.3267 13.6886 71.7211 14.8328C72.1156 15.9769 72.3128 17.2606 72.3128 18.6838C72.3128 20.107 72.1156 21.3907 71.7211 22.5348C71.3267 23.679 70.7351 24.6557 69.9463 25.465C69.1856 26.2742 68.2418 26.9021 67.1149 27.3486C65.988 27.7672 64.7061 27.9765 63.2693 27.9765H58.2405V38.6087H51.8594ZM58.2405 22.9116H61.6635C63.1566 22.9116 64.1849 22.6325 64.7484 22.0744C65.34 21.5163 65.6358 20.5954 65.6358 19.3117V18.0559C65.6358 16.7722 65.34 15.8513 64.7484 15.2932C64.1849 14.7351 63.1566 14.456 61.6635 14.456H58.2405V22.9116Z" fill="#FBFBFB"/>
<path d="M86.49 38.6087H80.2357V9.3911H91.6457C93.0825 9.3911 94.3643 9.61435 95.4912 10.0608C96.6181 10.4794 97.5619 11.0934 98.3226 11.9026C99.1114 12.7119 99.7031 13.6886 100.097 14.8328C100.492 15.9769 100.689 17.2606 100.689 18.6838C100.689 20.7489 100.238 22.5209 99.3368 23.9999C98.4353 25.4789 97.1534 26.4556 95.4912 26.93L101.281 38.6087H94.3502L89.4059 27.7672H86.49V38.6087ZM90.1243 22.9116C91.6175 22.9116 92.6458 22.6325 93.2092 22.0744C93.8009 21.5163 94.0967 20.5954 94.0967 19.3117V18.0559C94.0967 16.7722 93.8009 15.8513 93.2092 15.2932C92.6458 14.7351 91.6175 14.456 90.1243 14.456H86.49V22.9116H90.1243Z" fill="#FBFBFB"/>
<path d="M118.078 39.111C114.134 39.111 111.218 37.7855 109.33 35.1344C107.471 32.4833 106.541 28.7718 106.541 23.9999C106.541 19.228 107.471 15.5165 109.33 12.8654C111.218 10.2143 114.134 8.88879 118.078 8.88879C122.022 8.88879 124.924 10.2143 126.783 12.8654C128.671 15.5165 129.615 19.228 129.615 23.9999C129.615 28.7718 128.671 32.4833 126.783 35.1344C124.924 37.7855 122.022 39.111 118.078 39.111ZM118.078 34.0461C119.881 34.0461 121.121 33.3903 121.797 32.0787C122.501 30.7392 122.853 28.8835 122.853 26.5115V21.4465C122.853 19.1024 122.501 17.2746 121.797 15.963C121.121 14.6235 119.881 13.9537 118.078 13.9537C116.275 13.9537 115.021 14.6235 114.317 15.963C113.641 17.2746 113.303 19.1024 113.303 21.4465V26.5533C113.303 28.8974 113.641 30.7392 114.317 32.0787C115.021 33.3903 116.275 34.0461 118.078 34.0461Z" fill="#FBFBFB"/>
<path d="M141.975 38.6087L134.157 9.3911H141.214L144.68 24.2511L146.412 32.6647H146.75L148.525 24.2511L152.033 9.3911H158.752L150.934 38.6087H141.975Z" fill="#FBFBFB"/>
<path d="M165.534 38.6087V9.3911H184.381V14.5398H171.873V21.2372H183.959V26.3859H171.873V33.4601H184.381V38.6087H165.534Z" fill="#FBFBFB"/>
<path d="M198.981 19.1861H198.516V38.6087H193.107V9.3911H200.714L207.433 28.8137H207.898V9.3911H213.307V38.6087H205.7L198.981 19.1861Z" fill="#FBFBFB"/>
<path d="M237.288 38.6087L235.429 31.5764H227.357L225.54 38.6087H219.117L227.104 9.3911H236.063L244.05 38.6087H237.288ZM231.583 15.4607H231.245L228.372 26.5115H234.457L231.583 15.4607Z" fill="#FBFBFB"/>
<path d="M255.734 19.1861H255.269V38.6087H249.86V9.3911H257.466L264.186 28.8137H264.65V9.3911H270.06V38.6087H262.453L255.734 19.1861Z" fill="#FBFBFB"/>
<path d="M291.505 14.5398V38.6087H285.167V14.5398H276.672V9.3911H300V14.5398H291.505Z" fill="#FBFBFB"/>
<path fill-rule="evenodd" clip-rule="evenodd" d="M24.2294 6.22222C14.3171 6.22222 6.28169 14.1816 6.28169 24C6.28169 33.8184 14.3171 41.7778 24.2294 41.7778V48C10.8479 48 0 37.2548 0 24C0 10.7452 10.8479 0 24.2294 0V6.22222Z" fill="#FBFBFB"/>
<path fill-rule="evenodd" clip-rule="evenodd" d="M23.6964 23.8029L28.4555 19.0889L24.0137 14.6891L14.8127 23.8029L24.0137 32.9167L28.4555 28.517L23.6964 23.8029Z" fill="#FBFBFB"/>
</svg>
